<svg xmlns="http://www.w3.org/2000/svg" viewBox="6597 8194.65 134.789 46.092">
  <defs>
    <style>
      .cls-1 {
        fill: #fff;
        stroke: #000;
        stroke-width: 0.7px;
      }

      .cls-2 {
        fill: #222;
      }

      .cls-3 {
        fill: #1c1915;
      }
    </style>
  </defs>
  <g id="Artboard-1" transform="translate(6597.351 8195)">
    <g id="App-Store">
      <path id="background" class="cls-1" d="M5.339,0H128.534a5.451,5.451,0,0,1,5.447,5.447v34.5a5.451,5.451,0,0,1-5.447,5.447H5.339A5.451,5.451,0,0,1-.108,39.945V5.447A5.451,5.451,0,0,1,5.339,0Z" transform="translate(0.108)"/>
      <g id="icon" transform="translate(11.891 7.989)">
        <path id="Fill-2" class="cls-2" d="M17.457,14.824a5.854,5.854,0,0,1,2.778-4.9A6.021,6.021,0,0,0,15.524,7.37c-1.979-.209-3.9,1.189-4.911,1.189-1.026,0-2.587-1.162-4.258-1.135A6.26,6.26,0,0,0,1.08,10.647C-1.2,14.6.5,20.407,2.687,23.6c1.1,1.561,2.369,3.314,4.049,3.25,1.634-.064,2.251-1.044,4.221-1.044s2.533,1.044,4.24,1.008c1.761-.027,2.86-1.571,3.922-3.15a12.806,12.806,0,0,0,1.788-3.65,5.662,5.662,0,0,1-3.45-5.193" transform="translate(0.002 -1.151)"/>
        <path id="Fill-3" class="cls-3" d="M16.164,4.122A5.76,5.76,0,0,0,17.481,0a5.84,5.84,0,0,0-3.786,1.961,5.523,5.523,0,0,0-1.353,3.967,4.838,4.838,0,0,0,3.822-1.807" transform="translate(-1.927)"/>
      </g>
      <g id="Group_1723" data-name="Group 1723" transform="translate(41.752 19.864)">
        <path id="Fill-4" class="cls-2" d="M11.3,13.721H9.013L7.76,9.781H3.4l-1.189,3.94H-.011L4.3.312H6.971L11.3,13.721ZM7.388,8.129l-1.135-3.5c-.118-.363-.345-1.2-.672-2.524H5.536C5.4,2.682,5.191,3.526,4.9,4.634l-1.117,3.5Z" transform="translate(0.011 -0.122)"/>
        <path id="Fill-5" class="cls-2" d="M24.816,9.431a5.446,5.446,0,0,1-1.344,3.895A3.914,3.914,0,0,1,20.495,14.6a2.982,2.982,0,0,1-2.76-1.371V18.3H15.583V7.888c0-1.035-.027-2.088-.082-3.177H17.39l.118,1.534h.036A3.587,3.587,0,0,1,20.8,4.511a3.585,3.585,0,0,1,2.851,1.353,5.259,5.259,0,0,1,1.162,3.568ZM22.628,9.5a3.947,3.947,0,0,0-.635-2.324,2.2,2.2,0,0,0-1.87-.953,2.282,2.282,0,0,0-1.443.527,2.431,2.431,0,0,0-.844,1.38,2.939,2.939,0,0,0-.1.654V10.4a2.6,2.6,0,0,0,.645,1.779,2.145,2.145,0,0,0,1.68.726,2.216,2.216,0,0,0,1.888-.935A4.1,4.1,0,0,0,22.628,9.5Z" transform="translate(-2.42 -0.779)"/>
        <path id="Fill-6" class="cls-2" d="M37.993,9.431a5.446,5.446,0,0,1-1.344,3.895A3.914,3.914,0,0,1,33.671,14.6a2.982,2.982,0,0,1-2.76-1.371V18.3H28.76V7.888c0-1.035-.027-2.088-.082-3.177h1.888l.118,1.534h.036a3.813,3.813,0,0,1,6.11-.381,5.259,5.259,0,0,1,1.162,3.568ZM35.8,9.5a3.947,3.947,0,0,0-.635-2.324,2.2,2.2,0,0,0-1.87-.953,2.282,2.282,0,0,0-1.443.527,2.48,2.48,0,0,0-.844,1.38,2.939,2.939,0,0,0-.1.654V10.4a2.6,2.6,0,0,0,.645,1.779,2.145,2.145,0,0,0,1.68.726,2.205,2.205,0,0,0,1.888-.935A4.04,4.04,0,0,0,35.8,9.5Z" transform="translate(-4.484 -0.779)"/>
        <path id="Fill-7" class="cls-2" d="M52.928,9.927a3.59,3.59,0,0,1-1.189,2.787,5.279,5.279,0,0,1-3.65,1.171,6.386,6.386,0,0,1-3.468-.835l.5-1.788a6.03,6.03,0,0,0,3.1.835,2.924,2.924,0,0,0,1.888-.545,1.779,1.779,0,0,0,.681-1.462,1.891,1.891,0,0,0-.554-1.371,5.184,5.184,0,0,0-1.852-1.035c-2.369-.881-3.541-2.161-3.541-3.84a3.406,3.406,0,0,1,1.244-2.705,4.933,4.933,0,0,1,3.3-1.053,6.478,6.478,0,0,1,3.041.635l-.545,1.743a5.358,5.358,0,0,0-2.578-.617,2.675,2.675,0,0,0-1.779.554,1.611,1.611,0,0,0-.536,1.217,1.63,1.63,0,0,0,.617,1.307A6.926,6.926,0,0,0,49.56,5.96,6.544,6.544,0,0,1,52.1,7.594a3.4,3.4,0,0,1,.826,2.333" transform="translate(-6.982 -0.086)"/>
        <path id="Fill-8" class="cls-2" d="M61.818,5.916H59.449V10.61c0,1.189.418,1.788,1.253,1.788a3.985,3.985,0,0,0,.953-.1l.064,1.634a4.982,4.982,0,0,1-1.67.236,2.571,2.571,0,0,1-1.988-.781,3.79,3.79,0,0,1-.717-2.606V5.907H55.935V4.3h1.407V2.53l2.106-.635V4.3h2.369V5.916" transform="translate(-8.755 -0.369)"/>
        <path id="Fill-9" class="cls-2" d="M73.79,9.469a5.311,5.311,0,0,1-1.271,3.659A4.55,4.55,0,0,1,68.979,14.6a4.357,4.357,0,0,1-3.4-1.407,5.111,5.111,0,0,1-1.262-3.559,5.273,5.273,0,0,1,1.3-3.677,4.531,4.531,0,0,1,3.513-1.434,4.418,4.418,0,0,1,3.423,1.416A5.046,5.046,0,0,1,73.79,9.469Zm-2.224.045a4.333,4.333,0,0,0-.572-2.279,2.229,2.229,0,0,0-3.9,0,4.349,4.349,0,0,0-.572,2.324,4.31,4.31,0,0,0,.572,2.279,2.205,2.205,0,0,0,3.886-.018A4.4,4.4,0,0,0,71.566,9.514Z" transform="translate(-10.068 -0.781)"/>
        <path id="Fill-10" class="cls-2" d="M82.875,6.6a3.98,3.98,0,0,0-.681-.054,2.027,2.027,0,0,0-1.752.853A3.239,3.239,0,0,0,79.907,9.3v5.075H77.755V7.752c0-1.117-.018-2.133-.064-3.041h1.87l.082,1.852h.064a3.3,3.3,0,0,1,1.071-1.534,2.613,2.613,0,0,1,1.552-.517,4.522,4.522,0,0,1,.536.036L82.875,6.6" transform="translate(-12.163 -0.779)"/>
        <path id="Fill-11" class="cls-2" d="M93.631,9.081a4.91,4.91,0,0,1-.082.971H87.1a2.8,2.8,0,0,0,.935,2.188,3.219,3.219,0,0,0,2.106.672,7.233,7.233,0,0,0,2.606-.454l.336,1.489a8.067,8.067,0,0,1-3.241.6,4.7,4.7,0,0,1-3.532-1.325,4.893,4.893,0,0,1-1.28-3.55,5.547,5.547,0,0,1,1.2-3.64,4.113,4.113,0,0,1,3.377-1.552,3.588,3.588,0,0,1,3.159,1.552,5.251,5.251,0,0,1,.862,3.05Zm-2.052-.554a2.894,2.894,0,0,0-.418-1.652,1.874,1.874,0,0,0-1.707-.9,2.04,2.04,0,0,0-1.707.872,3.229,3.229,0,0,0-.635,1.67l4.467.009Z" transform="translate(-13.314 -0.774)"/>
      </g>
      <g id="Available-on-the" transform="translate(42.551 8.325)">
        <path id="Fill-12" class="cls-2" d="M5.533,7.075H4.407L3.79,5.142H1.647l-.59,1.934H-.032L2.083.484H3.39ZM3.6,4.325,3.045,2.6c-.054-.172-.163-.59-.336-1.244H2.691c-.073.281-.163.69-.318,1.244L1.829,4.325Z" transform="translate(0.032 -0.139)"/>
        <path id="Fill-13" class="cls-2" d="M12.005,2.659l-1.8,4.757H9.182L7.439,2.659H8.573l.808,2.515c.136.418.254.817.345,1.2h.027c.082-.345.2-.744.345-1.2l.8-2.515h1.108" transform="translate(-1.138 -0.48)"/>
        <path id="Fill-14" class="cls-2" d="M16.848,7.4l-.082-.545h-.027a1.634,1.634,0,0,1-1.389.654,1.379,1.379,0,0,1-1.453-1.4c0-1.171,1.017-1.779,2.778-1.779V4.242c0-.626-.336-.935-.99-.935a2.217,2.217,0,0,0-1.244.354l-.218-.69a3.052,3.052,0,0,1,1.634-.409c1.244,0,1.87.654,1.87,1.97V6.284A6.328,6.328,0,0,0,17.8,7.419L16.848,7.4ZM16.7,5.031c-1.171,0-1.761.281-1.761.962a.673.673,0,0,0,.726.744A1.01,1.01,0,0,0,16.7,5.767Z" transform="translate(-2.15 -0.465)"/>
        <path id="Fill-15" class="cls-2" d="M21.112,1.5a.618.618,0,0,1-.626-.635.645.645,0,0,1,1.289,0,.617.617,0,0,1-.663.635Zm-.508.781h1.053V7.028H20.6Z" transform="translate(-3.182 -0.101)"/>
        <path id="Fill-16" class="cls-2" d="M24.1.075h1.053V7H24.1Z" transform="translate(-3.749 -0.075)"/>
        <path id="Fill-17" class="cls-2" d="M30.122,7.4l-.082-.545h-.027a1.634,1.634,0,0,1-1.389.654,1.379,1.379,0,0,1-1.453-1.4c0-1.171,1.017-1.779,2.778-1.779V4.24c0-.626-.336-.935-.99-.935a2.217,2.217,0,0,0-1.244.354l-.218-.7a3.052,3.052,0,0,1,1.634-.409c1.244,0,1.87.654,1.87,1.97V6.273a7.505,7.505,0,0,0,.064,1.135h-.944V7.4ZM29.976,5.03c-1.171,0-1.761.281-1.761.962a.673.673,0,0,0,.726.744,1.01,1.01,0,0,0,1.035-.971Z" transform="translate(-4.23 -0.463)"/>
        <path id="Fill-18" class="cls-2" d="M36.335,7.12a1.617,1.617,0,0,1-1.5-.844h-.018l-.064.735h-.9c.027-.381.036-.808.036-1.28V.075h1.062V2.953h.018a1.633,1.633,0,0,1,1.516-.79c1.144,0,1.943.98,1.943,2.406A2.288,2.288,0,0,1,36.335,7.12ZM36.117,2.99a1.212,1.212,0,0,0-1.162,1.262v.835A1.161,1.161,0,0,0,36.1,6.276c.79,0,1.262-.645,1.262-1.67,0-.962-.49-1.616-1.244-1.616Z" transform="translate(-5.277 -0.075)"/>
        <path id="Fill-19" class="cls-2" d="M41.133.075h1.053V7H41.133Z" transform="translate(-6.417 -0.075)"/>
        <path id="Fill-20" class="cls-2" d="M48.419,5.271H45.25a1.364,1.364,0,0,0,1.5,1.407,3.571,3.571,0,0,0,1.28-.227l.163.735a3.85,3.85,0,0,1-1.589.291,2.206,2.206,0,0,1-2.369-2.4A2.321,2.321,0,0,1,46.485,2.53,2,2,0,0,1,48.464,4.79a1.84,1.84,0,0,1-.045.481Zm-.962-.754c0-.735-.372-1.253-1.044-1.253A1.252,1.252,0,0,0,45.26,4.518Z" transform="translate(-6.903 -0.46)"/>
        <path id="Fill-21" class="cls-2" d="M56.361,7.508a2.259,2.259,0,0,1-2.288-2.442,2.313,2.313,0,0,1,2.369-2.515A2.242,2.242,0,0,1,58.73,4.984,2.331,2.331,0,0,1,56.361,7.508Zm.045-4.185c-.763,0-1.253.717-1.253,1.707s.5,1.689,1.244,1.689S57.641,5.956,57.641,5s-.49-1.68-1.235-1.68Z" transform="translate(-8.445 -0.463)"/>
        <path id="Fill-22" class="cls-2" d="M65.551,7.4H64.5V4.665c0-.844-.327-1.262-.962-1.262a1.092,1.092,0,0,0-1.053,1.162V7.388H61.429V4c0-.418-.009-.872-.036-1.362h.926l.045.735h.027A1.709,1.709,0,0,1,63.9,2.541c1,0,1.652.763,1.652,2.006V7.4" transform="translate(-9.592 -0.462)"/>
        <path id="Fill-23" class="cls-2" d="M73.981,3.239H72.819V5.545c0,.59.209.881.617.881a2.31,2.31,0,0,0,.472-.045l.027.8a2.288,2.288,0,0,1-.817.118c-.835,0-1.325-.463-1.325-1.661v-2.4H71.1v-.79h.69V1.577l1.035-.318V2.44H73.99v.8" transform="translate(-11.113 -0.261)"/>
        <path id="Fill-24" class="cls-2" d="M80.381,7.011H79.328V4.3c0-.853-.327-1.28-.962-1.28a1.035,1.035,0,0,0-1.053,1.126V7H76.26V.075h1.053V2.926h.018a1.6,1.6,0,0,1,1.425-.772c1.008,0,1.625.781,1.625,2.024V7.011" transform="translate(-11.921 -0.075)"/>
        <path id="Fill-25" class="cls-2" d="M86.764,5.271H83.6a1.364,1.364,0,0,0,1.5,1.407,3.571,3.571,0,0,0,1.28-.227l.163.735a3.85,3.85,0,0,1-1.589.291,2.206,2.206,0,0,1-2.369-2.4A2.321,2.321,0,0,1,84.83,2.53,2,2,0,0,1,86.809,4.79a1.84,1.84,0,0,1-.045.481ZM85.8,4.518c0-.735-.372-1.253-1.044-1.253A1.246,1.246,0,0,0,83.6,4.518Z" transform="translate(-12.911 -0.46)"/>
      </g>
    </g>
  </g>
</svg>
