<svg xmlns="http://www.w3.org/2000/svg" viewBox="6315 3200.394 170.726 56.063">
  <defs>
    <style>
      .cls-1 {
        fill: #1c1915;
      }

      .cls-2 {
        fill: #fff;
      }
    </style>
  </defs>
  <g id="Group_1870" data-name="Group 1870" transform="translate(6315 3200.394)">
    <g id="available-on-the-app-store" transform="translate(0)">
      <g id="Artboard-1">
        <g id="App-Store">
          <path id="background" class="cls-1" d="M6.828,0H163.683a6.839,6.839,0,0,1,6.935,6.728V49.336a6.839,6.839,0,0,1-6.935,6.728H6.828A6.839,6.839,0,0,1-.108,49.336V6.728A6.839,6.839,0,0,1,6.828,0Z" transform="translate(0.108)"/>
          <g id="icon" transform="translate(15.14 9.867)">
            <path id="Fill-2" class="cls-2" d="M22.228,16.581a7.218,7.218,0,0,1,3.537-6.055,7.749,7.749,0,0,0-6-3.151c-2.52-.258-4.97,1.469-6.253,1.469-1.306,0-3.294-1.435-5.421-1.4a8.006,8.006,0,0,0-6.716,3.981c-2.9,4.878-.74,12.054,2.046,16,1.4,1.929,3.017,4.093,5.155,4.014,2.081-.078,2.867-1.289,5.375-1.289s3.225,1.289,5.4,1.245c2.242-.034,3.641-1.94,4.993-3.891a15.6,15.6,0,0,0,2.277-4.508,7.03,7.03,0,0,1-4.392-6.414" transform="translate(0.002 0.306)"/>
            <path id="Fill-3" class="cls-2" d="M17.216,5.091A6.974,6.974,0,0,0,18.892,0a7.515,7.515,0,0,0-4.82,2.422,6.7,6.7,0,0,0-1.722,4.9,6.236,6.236,0,0,0,4.866-2.231" transform="translate(0.911)"/>
          </g>
          <g id="Group_1723" data-name="Group 1723" transform="translate(53.16 24.533)">
            <path id="Fill-4" class="cls-2" d="M14.392,16.873H11.479l-1.6-4.866H4.335L2.821,16.873H-.011L5.48.312h3.4l5.514,16.561ZM9.41,9.966,7.965,5.649c-.15-.449-.439-1.48-.855-3.117H7.052c-.173.706-.439,1.749-.809,3.117L4.821,9.966Z" transform="translate(0.011 -0.077)"/>
            <path id="Fill-5" class="cls-2" d="M27.361,10.588A6.6,6.6,0,0,1,25.65,15.4a5.058,5.058,0,0,1-3.791,1.57,3.833,3.833,0,0,1-3.514-1.693v6.268H15.606V8.682c0-1.278-.035-2.579-.1-3.924h2.4l.15,1.895H18.1a4.6,4.6,0,0,1,4.15-2.142,4.62,4.62,0,0,1,3.63,1.671,6.371,6.371,0,0,1,1.48,4.407Zm-2.786.09a4.767,4.767,0,0,0-.809-2.87A2.829,2.829,0,0,0,21.385,6.63a2.96,2.96,0,0,0-1.838.65,2.99,2.99,0,0,0-1.075,1.7,3.53,3.53,0,0,0-.127.807v2a3.154,3.154,0,0,0,.821,2.2,2.771,2.771,0,0,0,2.138.9,2.852,2.852,0,0,0,2.4-1.155A4.955,4.955,0,0,0,24.575,10.678Z" transform="translate(1.155 0.098)"/>
            <path id="Fill-6" class="cls-2" d="M40.538,10.588a6.6,6.6,0,0,1-1.711,4.81,5.058,5.058,0,0,1-3.791,1.57,3.833,3.833,0,0,1-3.514-1.693v6.268H28.782V8.682c0-1.278-.035-2.579-.1-3.924h2.4l.15,1.895h.046a4.944,4.944,0,0,1,7.779-.471A6.371,6.371,0,0,1,40.538,10.588Zm-2.786.09a4.767,4.767,0,0,0-.809-2.87A2.829,2.829,0,0,0,34.562,6.63a2.96,2.96,0,0,0-1.838.65,3.051,3.051,0,0,0-1.075,1.7,3.529,3.529,0,0,0-.127.807v2a3.154,3.154,0,0,0,.821,2.2,2.771,2.771,0,0,0,2.138.9,2.837,2.837,0,0,0,2.4-1.155A4.881,4.881,0,0,0,37.752,10.678Z" transform="translate(2.127 0.098)"/>
            <path id="Fill-7" class="cls-2" d="M55.2,12.241a4.373,4.373,0,0,1-1.514,3.442,6.856,6.856,0,0,1-4.647,1.446A8.33,8.33,0,0,1,44.621,16.1l.636-2.209a7.86,7.86,0,0,0,3.953,1.032,3.8,3.8,0,0,0,2.4-.673,2.172,2.172,0,0,0,.867-1.805,2.3,2.3,0,0,0-.705-1.693,6.654,6.654,0,0,0-2.358-1.278C46.4,8.384,44.91,6.8,44.91,4.728a4.156,4.156,0,0,1,1.584-3.341,6.41,6.41,0,0,1,4.2-1.3,8.463,8.463,0,0,1,3.872.785l-.694,2.153a6.993,6.993,0,0,0-3.283-.762,3.476,3.476,0,0,0-2.266.684,1.963,1.963,0,0,0-.682,1.5,1.99,1.99,0,0,0,.786,1.615,8.907,8.907,0,0,0,2.485,1.278,8.36,8.36,0,0,1,3.237,2.018A4.12,4.12,0,0,1,55.2,12.241" transform="translate(3.302 -0.086)"/>
            <path id="Fill-8" class="cls-2" d="M63.425,6.862H60.409v5.8c0,1.469.532,2.209,1.6,2.209a5.224,5.224,0,0,0,1.214-.123l.081,2.018a6.524,6.524,0,0,1-2.127.292,3.327,3.327,0,0,1-2.531-.964,4.582,4.582,0,0,1-.913-3.218V6.851H55.935V4.866h1.792V2.68l2.682-.785V4.866h3.017v2" transform="translate(4.137 -0.011)"/>
            <path id="Fill-9" class="cls-2" d="M76.377,10.632a6.44,6.44,0,0,1-1.618,4.519,5.881,5.881,0,0,1-4.508,1.816,5.632,5.632,0,0,1-4.323-1.738,6.2,6.2,0,0,1-1.607-4.4,6.4,6.4,0,0,1,1.653-4.541,5.858,5.858,0,0,1,4.473-1.772,5.711,5.711,0,0,1,4.358,1.749,6.12,6.12,0,0,1,1.572,4.362Zm-2.832.056a5.227,5.227,0,0,0-.728-2.814,2.88,2.88,0,0,0-4.97,0,5.245,5.245,0,0,0-.728,2.87,5.2,5.2,0,0,0,.728,2.814,2.849,2.849,0,0,0,4.947-.022A5.307,5.307,0,0,0,73.545,10.688Z" transform="translate(4.755 0.098)"/>
            <path id="Fill-10" class="cls-2" d="M84.292,7.089a5.22,5.22,0,0,0-.867-.067,2.609,2.609,0,0,0-2.231,1.054,3.913,3.913,0,0,0-.682,2.355V16.7h-2.74V8.513c0-1.379-.023-2.635-.081-3.756h2.381l.1,2.287h.081A4.073,4.073,0,0,1,81.622,5.15,3.4,3.4,0,0,1,83.6,4.511a5.932,5.932,0,0,1,.682.045l.012,2.534" transform="translate(5.741 0.098)"/>
            <path id="Fill-11" class="cls-2" d="M95.98,10.163a5.889,5.889,0,0,1-.1,1.2H87.669a3.415,3.415,0,0,0,1.191,2.7,4.183,4.183,0,0,0,2.682.83,9.463,9.463,0,0,0,3.317-.561l.428,1.839a10.55,10.55,0,0,1-4.127.74,6.082,6.082,0,0,1-4.5-1.637,5.94,5.94,0,0,1-1.63-4.384,6.719,6.719,0,0,1,1.526-4.5,5.3,5.3,0,0,1,4.3-1.917A4.615,4.615,0,0,1,94.881,6.4a6.344,6.344,0,0,1,1.1,3.767Zm-2.612-.684a3.492,3.492,0,0,0-.532-2.041,2.406,2.406,0,0,0-2.173-1.11A2.624,2.624,0,0,0,88.489,7.4a3.919,3.919,0,0,0-.809,2.063l5.687.011Z" transform="translate(6.283 0.097)"/>
          </g>
          <g id="Available-on-the" transform="translate(54.177 10.282)">
            <path id="Fill-12" class="cls-2" d="M7.053,8.625H5.62L4.834,6.237H2.106L1.355,8.625H-.032L2.661.484H4.325Zm-2.462-3.4L3.886,3.1c-.069-.213-.208-.729-.428-1.536H3.435c-.092.348-.208.852-.4,1.536l-.694,2.13Z" transform="translate(0.032 -0.058)"/>
            <path id="Fill-13" class="cls-2" d="M13.253,2.659,10.964,8.534H9.658L7.439,2.659H8.884L9.912,5.765c.173.516.324,1.009.439,1.48h.035c.1-.426.254-.919.439-1.48l1.017-3.106h1.41" transform="translate(0.583 0.032)"/>
            <path id="Fill-14" class="cls-2" d="M17.654,8.538l-.1-.673h-.035a2.1,2.1,0,0,1-1.769.807A1.732,1.732,0,0,1,13.9,6.946c0-1.446,1.295-2.2,3.537-2.2V4.636c0-.774-.428-1.155-1.26-1.155a2.888,2.888,0,0,0-1.584.437l-.277-.852a3.98,3.98,0,0,1,2.081-.5A2.128,2.128,0,0,1,18.776,5V7.159a7.586,7.586,0,0,0,.092,1.4l-1.214-.022Zm-.185-2.927c-1.491,0-2.242.348-2.242,1.189a.844.844,0,0,0,.925.919,1.27,1.27,0,0,0,1.318-1.2Z" transform="translate(1.06 0.028)"/>
            <path id="Fill-15" class="cls-2" d="M21.283,1.8A.78.78,0,1,1,21.307.237a.773.773,0,0,1,.821.774.776.776,0,0,1-.844.785Zm-.647.964h1.341V8.624H20.636Z" transform="translate(1.545 -0.069)"/>
            <path id="Fill-16" class="cls-2" d="M24.1.075h1.341V8.631H24.1Z" transform="translate(1.812 -0.075)"/>
            <path id="Fill-17" class="cls-2" d="M30.928,8.539l-.1-.673h-.035a2.1,2.1,0,0,1-1.769.807,1.732,1.732,0,0,1-1.849-1.727c0-1.446,1.295-2.2,3.537-2.2V4.637c0-.774-.428-1.155-1.26-1.155a2.888,2.888,0,0,0-1.584.437l-.277-.863a3.98,3.98,0,0,1,2.081-.5,2.128,2.128,0,0,1,2.381,2.433V7.149a9,9,0,0,0,.081,1.4h-1.2V8.539Zm-.185-2.927c-1.491,0-2.242.348-2.242,1.189a.844.844,0,0,0,.925.919,1.27,1.27,0,0,0,1.318-1.2Z" transform="translate(2.038 0.028)"/>
            <path id="Fill-18" class="cls-2" d="M37.012,8.776A2.072,2.072,0,0,1,35.1,7.734h-.023L35,8.642H33.856c.035-.471.046-1,.046-1.581V.075h1.352V3.63h.023a2.1,2.1,0,0,1,1.93-.976c1.456,0,2.474,1.211,2.474,2.971C39.682,7.442,38.549,8.776,37.012,8.776Zm-.277-5.1a1.518,1.518,0,0,0-1.48,1.559V6.265a1.455,1.455,0,0,0,1.456,1.469c1.006,0,1.607-.8,1.607-2.063,0-1.189-.624-2-1.584-2Z" transform="translate(2.531 -0.075)"/>
            <path id="Fill-19" class="cls-2" d="M41.133.075h1.341V8.631H41.133Z" transform="translate(3.068 -0.075)"/>
            <path id="Fill-20" class="cls-2" d="M49.562,5.916H45.528a1.715,1.715,0,0,0,1.907,1.738,4.672,4.672,0,0,0,1.63-.28l.208.908a5.035,5.035,0,0,1-2.023.359,2.766,2.766,0,0,1-3.017-2.96A2.9,2.9,0,0,1,47.1,2.53a2.5,2.5,0,0,1,2.52,2.792,2.208,2.208,0,0,1-.058.594Zm-1.225-.931c0-.908-.474-1.547-1.329-1.547A1.568,1.568,0,0,0,45.54,4.985Z" transform="translate(3.297 0.027)"/>
            <path id="Fill-21" class="cls-2" d="M56.986,8.673a2.829,2.829,0,0,1-2.913-3.016A2.9,2.9,0,0,1,57.09,2.551,2.808,2.808,0,0,1,60,5.556,2.919,2.919,0,0,1,56.986,8.673ZM57.044,3.5c-.971,0-1.6.886-1.6,2.108S56.084,7.7,57.032,7.7s1.584-.942,1.584-2.119S57.991,3.5,57.044,3.5Z" transform="translate(4.022 0.028)"/>
            <path id="Fill-22" class="cls-2" d="M66.687,8.539H65.346V5.164c0-1.043-.416-1.559-1.225-1.559A1.366,1.366,0,0,0,62.78,5.041V8.528H61.439V4.346c0-.516-.012-1.076-.046-1.682h1.179l.058.908h.035a2.191,2.191,0,0,1,1.919-1.032c1.271,0,2.1.942,2.1,2.478V8.539" transform="translate(4.562 0.027)"/>
            <path id="Fill-23" class="cls-2" d="M74.767,3.7h-1.48V6.552c0,.729.266,1.088.786,1.088a3.029,3.029,0,0,0,.6-.056l.035.987a3,3,0,0,1-1.04.146c-1.063,0-1.688-.572-1.688-2.052V3.7H71.1V2.728h.878V1.652L73.3,1.26V2.717h1.48V3.7" transform="translate(5.278 -0.026)"/>
            <path id="Fill-24" class="cls-2" d="M81.507,8.642H80.167V5.289c0-1.054-.416-1.581-1.225-1.581A1.3,1.3,0,0,0,77.6,5.1V8.631H76.26V.075H77.6V3.6h.023a2.049,2.049,0,0,1,1.815-.953c1.283,0,2.069.964,2.069,2.5v3.5" transform="translate(5.659 -0.075)"/>
            <path id="Fill-25" class="cls-2" d="M87.908,5.916H83.873a1.715,1.715,0,0,0,1.907,1.738,4.672,4.672,0,0,0,1.63-.28l.208.908a5.035,5.035,0,0,1-2.023.359,2.766,2.766,0,0,1-3.017-2.96A2.9,2.9,0,0,1,85.445,2.53a2.5,2.5,0,0,1,2.52,2.792A2.208,2.208,0,0,1,87.908,5.916Zm-1.225-.931c0-.908-.474-1.547-1.329-1.547a1.56,1.56,0,0,0-1.468,1.547Z" transform="translate(6.125 0.027)"/>
          </g>
        </g>
      </g>
    </g>
  </g>
</svg>
