<svg xmlns="http://www.w3.org/2000/svg" viewBox="6513.643 3200.394 173.839 56.063">
  <defs>
    <style>
      .cls-1 {
        fill: #1c1915;
      }

      .cls-2 {
        fill: #fff;
      }
    </style>
  </defs>
  <g id="Group_1871" data-name="Group 1871" transform="translate(6513.643 3200.394)">
    <g id="available-on-the-app-store" transform="translate(0)">
      <g id="Artboard-1" transform="translate(0)">
        <g id="App-Store">
          <path id="background" class="cls-1" d="M6.954,0H166.67a6.906,6.906,0,0,1,7.062,6.728V49.336a6.906,6.906,0,0,1-7.062,6.728H6.954A6.906,6.906,0,0,1-.108,49.336V6.728A6.906,6.906,0,0,1,6.954,0Z" transform="translate(0.108)"/>
          <path id="Path_1621" data-name="Path 1621" class="cls-2" d="M80.017,169.244a1.057,1.057,0,0,0-.017.192v25.477a.563.563,0,0,0,.356.578l13.989-12.932L80.017,169.244Zm.516-.544a1.151,1.151,0,0,1,.757.147L92.926,175.1l6,3.223L94.9,182.048,80.533,168.7Zm17.679,17.453-2.974,1.6-2.312,1.242-10.835,5.824L94.88,183.057l3.331,3.1Zm.7-.375.048-.026s5.118-2.751,5.8-3.116.614-.867.041-1.156c-.448-.224-3.747-2.006-5.179-2.78l-4.185,3.848,3.476,3.23Z" transform="translate(-64.113 -151.708)"/>
          <g id="Group_1724" data-name="Group 1724" transform="translate(52.558 9.669)">
            <path id="Path_1622" data-name="Path 1622" class="cls-2" d="M485.651,124.614l-1.094,1.007c-.253.136-.5.293-.755.4a5.412,5.412,0,0,1-2.219.421,4.985,4.985,0,0,1-3.044-.871,5.718,5.718,0,0,1-2.333-4.7,5.131,5.131,0,0,1,5.241-5.157,4.535,4.535,0,0,1,2.355.625,3.73,3.73,0,0,1,1.6,2.209l-5.377,2.12-1.761.134c.57,2.837,2.537,4.487,4.71,4.487a5.755,5.755,0,0,0,2.631-.7s.148-.075.043.028Zm-3.285-5.692c.432-.156.656-.29.656-.6a2.245,2.245,0,0,0-2.241-1.934c-.9,0-2.6.7-2.6,3.127,0,.379.045.782.068,1.186Zm-7.936,5.57c0,.865.158,1,.907,1.067.391.045.78.065,1.165.11l-.843.49h-4.017c.527-.668.617-.734.617-1.179v-.5l-.009-13.237h-1.774l1.708-.8h3.26a1.539,1.539,0,0,0-1.009,1.422l-.005,12.627Zm-6.233-7.686a3.586,3.586,0,0,1-.3,6.165,1.571,1.571,0,0,0-.638,1.089,1.222,1.222,0,0,0,.592.959l.822.621c1,.825,1.911,1.582,1.911,3.119,0,2.094-2.072,4.205-5.987,4.205-3.3,0-4.892-1.536-4.892-3.184a3.188,3.188,0,0,1,1.754-2.715,9.982,9.982,0,0,1,4.346-1.022,2.325,2.325,0,0,1-.684-1.517,1.977,1.977,0,0,1,.228-.867c-.249.023-.5.047-.728.047a3.563,3.563,0,0,1-3.778-3.5,3.963,3.963,0,0,1,1.458-2.983A6.309,6.309,0,0,1,466.379,116h4.69l-1.458.8H468.2Zm-1.6,9.857a3.59,3.59,0,0,0-.528-.024,9.21,9.21,0,0,0-2.407.363,2.561,2.561,0,0,0-1.976,2.335c0,1.606,1.585,2.765,4.036,2.765,2.2,0,3.372-1.043,3.372-2.447,0-1.156-.757-1.766-2.5-2.991Zm.644-4.287a2.209,2.209,0,0,0,.57-1.622c0-1.6-.972-4.082-2.855-4.082a2.128,2.128,0,0,0-1.585.735,2.519,2.519,0,0,0-.5,1.639c0,1.486.885,3.951,2.832,3.951a2.343,2.343,0,0,0,1.538-.621Zm-13.227,4.071a5.333,5.333,0,0,1-5.565-5.287,5.609,5.609,0,0,1,5.907-5.447A5.289,5.289,0,0,1,459.808,121,5.525,5.525,0,0,1,454.013,126.447Zm2.835-1.815a3.984,3.984,0,0,0,.688-2.493c0-1.98-.96-5.755-3.8-5.755a3.226,3.226,0,0,0-2.063.763,3.365,3.365,0,0,0-1.053,2.745c0,2.221,1.118,5.884,3.891,5.884a2.945,2.945,0,0,0,2.336-1.144Zm-14.986,1.815a5.332,5.332,0,0,1-5.565-5.287,5.61,5.61,0,0,1,5.909-5.447A5.288,5.288,0,0,1,447.657,121,5.524,5.524,0,0,1,441.862,126.447Zm2.837-1.815a4.007,4.007,0,0,0,.687-2.493c0-1.98-.964-5.755-3.8-5.755a3.214,3.214,0,0,0-2.06.763,3.361,3.361,0,0,0-1.055,2.745c0,2.221,1.123,5.884,3.893,5.884a2.949,2.949,0,0,0,2.335-1.144Zm-9.905,1.151-3.071.687a22.971,22.971,0,0,1-3.545.36c-5.923,0-8.18-4.257-8.18-7.588,0-4.069,3.2-7.841,8.674-7.841a12.837,12.837,0,0,1,3.289.437,8.353,8.353,0,0,1,2.833,1.3l-1.784,1.654-.752.164.536-.834a6.185,6.185,0,0,0-4.6-1.971,5.852,5.852,0,0,0-5.943,6.185,7.493,7.493,0,0,0,7.6,7.651,6.526,6.526,0,0,0,2.726-.522v-3.38l-3.242.17,1.719-.9h4.551l-.557.523a.479.479,0,0,0-.212.334c-.022.191-.044.8-.044,1.011v2.556Zm57.485-1.068v5.66h-1.156v-14.4h1.156v1.64a4.633,4.633,0,0,1,3.727-1.9c2.867,0,4.8,2.114,4.8,5.462,0,3.325-1.931,5.483-4.8,5.483a4.621,4.621,0,0,1-3.727-1.943Zm7.339-3.454c0-2.549-1.358-4.494-3.764-4.494a4.615,4.615,0,0,0-3.546,2.153v4.659a4.653,4.653,0,0,0,3.546,2.2C498.26,125.776,499.617,123.815,499.617,121.262Zm2.766-9.285h1.185v14.471h-1.185Zm14.073,17.4a2.789,2.789,0,0,0,.937.173c.707,0,1.2-.281,1.642-1.275l.843-1.858-4.554-10.515h1.29l3.906,9.112,3.869-9.112H525.7l-5.554,12.721a2.835,2.835,0,0,1-2.729,1.941,4.692,4.692,0,0,1-1.155-.151l.2-1.037Zm-3.262-2.947c-.078-.364-.136-.684-.179-.952a6.211,6.211,0,0,1-.056-.817,4.569,4.569,0,0,1-1.684,1.415,4.742,4.742,0,0,1-2.349.56,3.873,3.873,0,0,1-2.639-.82,2.821,2.821,0,0,1-.94-2.234,2.63,2.63,0,0,1,1.364-2.286,6.414,6.414,0,0,1,3.536-.877h2.711v-1.3a2.158,2.158,0,0,0-.788-1.768,3.438,3.438,0,0,0-2.226-.645,3.6,3.6,0,0,0-2.129.583,1.763,1.763,0,0,0-.807,1.468h-1.19l-.025-.056a2.409,2.409,0,0,1,1.122-2.087,4.983,4.983,0,0,1,3.094-.9,4.919,4.919,0,0,1,3.066.889,3,3,0,0,1,1.16,2.54v5.172a7.986,7.986,0,0,0,.066,1.08,6.729,6.729,0,0,0,.232,1.038h-1.34Zm-4.128-.752a4.441,4.441,0,0,0,2.421-.642,3.272,3.272,0,0,0,1.467-1.647v-2.023h-2.722a4.539,4.539,0,0,0-2.578.679,1.961,1.961,0,0,0-1.022,1.637,1.8,1.8,0,0,0,.651,1.446,2.669,2.669,0,0,0,1.784.55ZM420,102.231c0-2.064,1.7-3.392,3.812-3.392a3.512,3.512,0,0,1,2.919,1.357l-1.034.541a2.427,2.427,0,0,0-1.885-.875,2.373,2.373,0,1,0,0,4.738,2.768,2.768,0,0,0,1.721-.59V103h-2.178v-1.013h3.442v2.448a4.118,4.118,0,0,1-2.984,1.2,3.509,3.509,0,0,1-3.812-3.4Zm8.444,3.3V98.939h5.046v1.019h-3.754v1.7h3.677v1.018h-3.677v1.838h3.754v1.018Zm8.477,0V99.958h-2.2V98.939h5.664v1.019h-2.2v5.575Zm8-6.594h1.236v6.594h-1.236Zm4.771,6.594V99.958h-2.2V98.939h5.664v1.019h-2.2v5.575Zm7.689-3.3a3.778,3.778,0,1,1,3.759,3.4A3.463,3.463,0,0,1,457.379,102.236Zm6.179-.05a2.421,2.421,0,1,0-2.42,2.348A2.279,2.279,0,0,0,463.558,102.186Zm7.834,3.347-3.783-4.715v4.715h-1.271V98.939h1.3l3.706,4.567V98.939h1.272v6.594Z" transform="translate(-419.998 -98.839)"/>
          </g>
        </g>
      </g>
    </g>
  </g>
</svg>
