<svg xmlns="http://www.w3.org/2000/svg" viewBox="7003.315 4187.469 9.321 16.724">
  <defs>
    <style>
      .cls-1 {
        fill: #fff;
        opacity: 0.5;
      }
    </style>
  </defs>
  <path id="Path_33" data-name="Path 33" class="cls-1" d="M31.047,0,28.811,0a3.866,3.866,0,0,0-4.135,4.116v1.9H22.429a.346.346,0,0,0-.352.341V9.1a.346.346,0,0,0,.352.341h2.248v6.938a.346.346,0,0,0,.352.341h2.933a.346.346,0,0,0,.352-.341V9.445h2.628a.346.346,0,0,0,.352-.341V6.355a.336.336,0,0,0-.1-.241.357.357,0,0,0-.249-.1H28.312V4.4c0-.773.19-1.166,1.228-1.166h1.506A.346.346,0,0,0,31.4,2.9V.344A.346.346,0,0,0,31.047,0Z" transform="translate(6981.238 4187.469)"/>
</svg>
