<svg xmlns="http://www.w3.org/2000/svg" viewBox="6914.982 4187.469 19.517 16.031">
  <defs>
    <style>
      .cls-1 {
        fill: #fff;
        opacity: 0.5;
      }
    </style>
  </defs>
  <path id="Path_34" data-name="Path 34" class="cls-1" d="M18.944,43.913q-.144.041-.289.076c-.588.144-.642-.046-.216-.465a3.828,3.828,0,0,0,.505-.613c.328-.5.044-.711-.515-.48q-.3.124-.607.224a2.6,2.6,0,0,1-1.9-.41,4.123,4.123,0,0,0-2.205-.6,4.084,4.084,0,0,0-2.95,1.183,3.842,3.842,0,0,0-1.22,2.862,4.146,4.146,0,0,0,.027.466c.029.256-.416.442-1.016.36a12.011,12.011,0,0,1-6.775-3.337c-.424-.421-1-.385-1.156.184a3.939,3.939,0,0,0-.142,1.063,3.848,3.848,0,0,0,.5,1.929,4.145,4.145,0,0,0,.587.8c.378.4.32.635-.206.493a6.9,6.9,0,0,1-.911-.341v.025A3.837,3.837,0,0,0,1.4,49.908a4.131,4.131,0,0,0,1.358,1.054c.544.261.8.407.493.445a4.442,4.442,0,0,1-.554.035q-.188,0-.395-.017c-.217-.018-.257.422.073.916a4.258,4.258,0,0,0,2.349,1.691c.584.161.7.455.18.758A8.341,8.341,0,0,1,.635,55.914q-.264,0-.5-.011c-.278-.013-.092.225.446.5a11.87,11.87,0,0,0,5.455,1.279A12.534,12.534,0,0,0,10.2,57a10.7,10.7,0,0,0,3.331-1.829,12.359,12.359,0,0,0,2.382-2.636,11.6,11.6,0,0,0,1.491-3.112,11.181,11.181,0,0,0,.491-3.25c0-.1,0-.186,0-.263,0-.145.393-.539.836-.941q.3-.273.572-.573C19.7,43.951,19.526,43.748,18.944,43.913Z" transform="translate(6914.98 4145.821)"/>
</svg>
