<svg xmlns="http://www.w3.org/2000/svg" viewBox="6753.016 8194.65 137.234 46.092">
  <defs>
    <style>
      .cls-1 {
        fill: #fff;
        stroke: #000;
        stroke-width: 0.7px;
      }

      .cls-2 {
        fill: #222;
      }
    </style>
  </defs>
  <g id="available-on-the-app-store" transform="translate(6753.366 8195)">
    <g id="Artboard-1" transform="translate(0)">
      <g id="App-Store">
        <path id="background" class="cls-1" d="M5.439,0H130.88a5.5,5.5,0,0,1,5.546,5.447v34.5a5.5,5.5,0,0,1-5.546,5.447H5.439A5.5,5.5,0,0,1-.108,39.945V5.447A5.5,5.5,0,0,1,5.439,0Z" transform="translate(0.108)"/>
        <path id="Path_1621" data-name="Path 1621" class="cls-2" d="M80.013,169.137a.881.881,0,0,0-.013.155v20.628a.456.456,0,0,0,.279.468l10.987-10.471-11.253-10.78Zm.405-.441a.881.881,0,0,1,.595.119l9.139,5.064,4.711,2.61L91.7,179.5,80.418,168.7ZM94.3,182.827l-2.335,1.293-1.816,1.005-8.51,4.715,10.044-9.521,2.617,2.506Zm.549-.3.038-.021,4.555-2.523c.534-.3.483-.7.032-.936-.352-.182-2.943-1.624-4.068-2.251l-3.287,3.115,2.73,2.615Z" transform="translate(-67.522 -154.939)"/>
        <g id="Group_1724" data-name="Group 1724" transform="translate(41.279 7.828)">
          <path id="Path_1622" data-name="Path 1622" class="cls-2" d="M471.562,119.708l-.859.816c-.2.11-.4.237-.593.328a4.138,4.138,0,0,1-1.743.341,3.827,3.827,0,0,1-2.391-.705,4.681,4.681,0,0,1-1.832-3.809,4.086,4.086,0,0,1,4.116-4.176,3.48,3.48,0,0,1,1.85.506,3.022,3.022,0,0,1,1.258,1.788l-4.223,1.716-1.383.108c.448,2.3,1.992,3.633,3.7,3.633a4.417,4.417,0,0,0,2.066-.569s.117-.061.034.022Zm-2.58-4.608c.339-.126.515-.235.515-.488a1.784,1.784,0,0,0-1.76-1.566,2.223,2.223,0,0,0-2.041,2.532c0,.307.036.633.054.96Zm-6.233,4.51c0,.7.124.809.713.864.307.036.612.052.915.089l-.662.4h-3.155c.414-.541.485-.594.485-.955v-.4l-.007-10.718h-1.393l1.341-.651h2.561a1.244,1.244,0,0,0-.792,1.152l0,10.224Zm-4.9-6.223a2.95,2.95,0,0,1-.232,4.991,1.28,1.28,0,0,0-.5.882.993.993,0,0,0,.465.777l.646.5a3.148,3.148,0,0,1,1.5,2.525c0,1.7-1.627,3.4-4.7,3.4-2.59,0-3.842-1.244-3.842-2.578a2.592,2.592,0,0,1,1.378-2.2,7.647,7.647,0,0,1,3.413-.828,1.908,1.908,0,0,1-.538-1.228,1.64,1.64,0,0,1,.179-.7c-.2.019-.393.038-.572.038a2.838,2.838,0,0,1-2.967-2.831,3.247,3.247,0,0,1,1.145-2.415,4.85,4.85,0,0,1,3.2-.992h3.684l-1.145.652h-1.11Zm-1.258,7.981a2.738,2.738,0,0,0-.415-.02,7.031,7.031,0,0,0-1.891.294,2.051,2.051,0,0,0-1.552,1.891c0,1.3,1.245,2.239,3.17,2.239,1.73,0,2.649-.844,2.649-1.981,0-.936-.594-1.43-1.961-2.422Zm.505-3.471a1.823,1.823,0,0,0,.447-1.313c0-1.292-.763-3.3-2.243-3.3a1.652,1.652,0,0,0-1.245.6,2.084,2.084,0,0,0-.391,1.327c0,1.2.7,3.2,2.224,3.2a1.812,1.812,0,0,0,1.208-.5Zm-10.388,3.3a4.253,4.253,0,0,1-4.371-4.28,4.465,4.465,0,0,1,4.639-4.41,4.218,4.218,0,0,1,4.283,4.282A4.4,4.4,0,0,1,446.713,121.192Zm2.227-1.469a3.3,3.3,0,0,0,.54-2.018c0-1.6-.754-4.66-2.983-4.66a2.489,2.489,0,0,0-1.62.618,2.772,2.772,0,0,0-.827,2.223c0,1.8.878,4.764,3.056,4.764a2.289,2.289,0,0,0,1.834-.926Zm-11.77,1.469a4.251,4.251,0,0,1-4.371-4.28,4.466,4.466,0,0,1,4.641-4.41,4.217,4.217,0,0,1,4.281,4.282A4.4,4.4,0,0,1,437.17,121.192Zm2.228-1.469a3.319,3.319,0,0,0,.539-2.018c0-1.6-.757-4.66-2.985-4.66a2.481,2.481,0,0,0-1.618.618,2.768,2.768,0,0,0-.828,2.223c0,1.8.882,4.764,3.058,4.764a2.292,2.292,0,0,0,1.834-.926Zm-7.78.932-2.412.556a17.521,17.521,0,0,1-2.784.291A6.014,6.014,0,0,1,420,115.358c0-3.294,2.512-6.348,6.813-6.348a9.8,9.8,0,0,1,2.583.354,6.478,6.478,0,0,1,2.225,1.056l-1.4,1.339-.591.133.421-.676a4.8,4.8,0,0,0-3.609-1.6,4.673,4.673,0,0,0-4.668,5.008,5.983,5.983,0,0,0,5.968,6.195,5,5,0,0,0,2.141-.422v-2.737l-2.547.138,1.35-.73h3.574l-.437.423a.39.39,0,0,0-.167.27c-.018.155-.034.646-.034.819v2.07Zm45.149-.864v4.583h-.908V112.712h.908v1.328a3.607,3.607,0,0,1,2.928-1.539c2.251,0,3.768,1.712,3.768,4.422,0,2.692-1.516,4.44-3.768,4.44a3.6,3.6,0,0,1-2.928-1.573Zm5.764-2.8c0-2.064-1.066-3.638-2.957-3.638a3.613,3.613,0,0,0-2.785,1.743v3.772a3.644,3.644,0,0,0,2.785,1.779C481.465,120.649,482.531,119.061,482.531,116.994Zm2.172-7.518h.931v11.716H484.7Zm11.053,14.091a2.132,2.132,0,0,0,.736.14c.555,0,.942-.228,1.289-1.032l.662-1.5-3.577-8.513h1.013l3.068,7.378,3.038-7.378h1.027l-4.362,10.3a2.231,2.231,0,0,1-2.143,1.572,3.58,3.58,0,0,1-.907-.122l.156-.84Zm-2.562-2.386c-.061-.294-.107-.554-.141-.77a5.187,5.187,0,0,1-.044-.662,3.895,3.895,0,0,1-3.167,1.6,2.982,2.982,0,0,1-2.073-.664,2.318,2.318,0,0,1-.738-1.808,2.141,2.141,0,0,1,1.071-1.851,4.921,4.921,0,0,1,2.778-.71h2.13v-1.055a1.77,1.77,0,0,0-.619-1.432,2.644,2.644,0,0,0-1.748-.522,2.763,2.763,0,0,0-1.672.472,1.439,1.439,0,0,0-.634,1.189H487.4l-.019-.046a1.968,1.968,0,0,1,.881-1.689,3.831,3.831,0,0,1,2.43-.729,3.782,3.782,0,0,1,2.408.72,2.456,2.456,0,0,1,.911,2.057v4.187a6.652,6.652,0,0,0,.052.874,5.574,5.574,0,0,0,.182.841h-1.052Zm-3.242-.609a3.409,3.409,0,0,0,1.9-.52,2.625,2.625,0,0,0,1.152-1.333V117.08h-2.138a3.484,3.484,0,0,0-2.025.55,1.6,1.6,0,0,0-.8,1.326,1.472,1.472,0,0,0,.511,1.171,2.055,2.055,0,0,0,1.4.446ZM420,101.585a2.779,2.779,0,0,1,2.994-2.746,2.729,2.729,0,0,1,2.293,1.1l-.812.438a1.932,1.932,0,1,0-1.48,3.128,2.134,2.134,0,0,0,1.352-.477v-.82h-1.711v-.82h2.7v1.982a3.186,3.186,0,0,1-2.344.971A2.789,2.789,0,0,1,420,101.586Zm6.632,2.673V98.92h3.963v.825h-2.948v1.376h2.888v.824h-2.888v1.489h2.948v.824Zm6.658,0V99.745h-1.725V98.92h4.448v.825h-1.725v4.514Zm6.283-5.339h.971v5.339h-.971Zm3.747,5.339V99.745h-1.725V98.92h4.448v.825h-1.724v4.514Zm6.039-2.669a2.96,2.96,0,1,1,2.952,2.75A2.755,2.755,0,0,1,449.357,101.589Zm4.853-.041a1.9,1.9,0,1,0-1.9,1.9A1.817,1.817,0,0,0,454.21,101.549Zm6.153,2.71-2.971-3.818v3.818h-1V98.92h1.024l2.91,3.7v-3.7h1v5.339Z" transform="translate(-419.998 -98.839)"/>
        </g>
      </g>
    </g>
  </g>
</svg>
