<svg xmlns="http://www.w3.org/2000/svg" viewBox="628 499 26.871 38.822">
  <defs>
    <style>
      .cls-1, .cls-2 {
        fill: #fcfcfc;
      }

      .cls-2 {
        opacity: 0.04;
      }
    </style>
  </defs>
  <g id="logo_white" data-name="logo white" transform="translate(628 499.001)">
    <g id="Layer_6" data-name="Layer 6">
      <g id="Group_1816" data-name="Group 1816">
        <path id="Path_1400" data-name="Path 1400" class="cls-1" d="M297.856,2.312s1.032-4.814,4.9.828c0,0,6.227,6.847,4.39,15.453a23.841,23.841,0,0,1-1.85,5.34,24.172,24.172,0,0,1-5.652,7.445l-5.037,4.606s-5.34,3.521-4.207-.931c0,0,.055-1.844.947-2.212a1.66,1.66,0,0,0,.581-2.44s-.535-1.051.981-1.981a1.463,1.463,0,0,0,.484-2.143,1.993,1.993,0,0,1,1.146-2.146s1.157-.171.484-2.143c0,0-.139-1.25.819-1.486,0,0,1.389-.2.155-1.812,0,0-.734-1.115.75-1.948,0,0,.958-.236-.111-2.008,0,0-.633-.754.752-1.618,0,0,.759-.3-.044-1.877,0,0-.7-1.544.452-2.044,0,0,.857-.6.22-2.01C298.017,7.185,297.2,3.633,297.856,2.312Z" transform="translate(-280.614 -0.399)"/>
        <path id="Path_1401" data-name="Path 1401" class="cls-1" d="M14.83,19.2s1.044-2.509-1.136-1.9-6.362,3.955-6.362,3.955S.8,24.712,0,35.189c0,0,.127,10.669,3.263,15.2L6,54.122s1.228.619,1.58-1.458l.938-3.858a1.622,1.622,0,0,1,.987-.994s.859-.268-.077-1.778c0,0-.269-.855.886-1.354a1.083,1.083,0,0,0,.424-.25,1.991,1.991,0,0,0,.058-2.223,9.315,9.315,0,0,1-.032-1.915,9.753,9.753,0,0,1,1.583-4.483S16.8,28.277,14.96,24.5A7.628,7.628,0,0,1,14.83,19.2Z" transform="translate(0 -16.647)"/>
        <path id="Path_1402" data-name="Path 1402" class="cls-2" d="M328.077,150.878c.005.058.073.9-.19.987-.21.071-.6-.348-.784-.783-.253-.6-.039-1.063-.359-1.3-.152-.111-.215-.018-.469-.155a1.008,1.008,0,0,1-.55-.706c-.02-.173,0-.486.192-.592.3-.169.827.3,1.017.467a3.781,3.781,0,0,1,1.143,2.082Z" transform="translate(-317.784 -142.455)"/>
        <path id="Path_1403" data-name="Path 1403" class="cls-2" d="M299.112,217.663a1,1,0,0,1,0,.79c-.1.18-.248.222-.232.316.034.207.759.1.9.428a.411.411,0,0,1-.153.474c-.1.055-.265.055-1.017-.467-.879-.609-.948-.814-1.29-.819a1.528,1.528,0,0,1-.626-.075c-.112-.043-.3-.115-.313-.235-.02-.181.389-.247.426-.513.025-.177-.127-.348-.237-.471-.2-.222-.348-.224-.391-.392-.036-.135.016-.316.115-.355.142-.059.284.2.469.155a.384.384,0,0,0,.232-.316c.045-.321-.338-.491-.277-.747a.382.382,0,0,1,.35-.276c.333.019.251.79.827,1.452C298.407,217.194,298.906,217.091,299.112,217.663Z" transform="translate(-289.391 -206.676)"/>
        <path id="Path_1404" data-name="Path 1404" class="cls-2" d="M264.21,308.208c.128-.107.416.132.508.036.066-.07-.007-.282-.12-.433-.209-.282-.439-.2-.743-.508-.134-.134-.1-.155-.274-.353a3.107,3.107,0,0,0-.508-.43c-.811-.6-.947-.658-1.1-.624a.478.478,0,0,1-.274.04c-.142-.04-.156-.158-.313-.235s-.343-.076-.391,0c-.063.1.188.3.119.432-.056.111-.263.051-.311.158-.039.088.05.233.156.314.154.115.313.07.626.075a1.791,1.791,0,0,1,.626.075c.186.076.225.189.708,1.02a10.164,10.164,0,0,0,.629.862.541.541,0,0,0,.313.235.332.332,0,0,0,.274-.039C264.3,308.69,264.071,308.323,264.21,308.208Z" transform="translate(-255.403 -293.593)"/>
        <path id="Path_1405" data-name="Path 1405" class="cls-2" d="M243.859,394.28a.573.573,0,0,0-.43-.273c-.188-.018-.293.076-.391,0a.265.265,0,0,1-.078-.158c-.045-.141-.166-.225-.86-.547-.38-.176-.454-.2-.547-.312-.078-.092-.144-.211-.2-.2s-.009.13-.078.237-.243.145-.584.2c-.086.014-.274.039-.274.039h0s.055.119.078.158c.111.175.456.022.587.194a.355.355,0,0,1,.039.276c-.024.1-.086.143-.078.237.007.07.045.079.078.158.061.141-.019.216,0,.395.007.053.029.244.156.314a.386.386,0,0,0,.428-.12,1.014,1.014,0,0,0,.153-.474c.01-.065.013-.111.039-.119.046-.014.11.113.274.353a2.555,2.555,0,0,0,.274.353c.135.139.2.209.313.235a.5.5,0,0,0,.428-.121c.179-.164.113-.373.271-.434.072-.028.112.005.274-.039.125-.036.149-.07.156-.079C243.962,394.46,243.871,394.3,243.859,394.28Z" transform="translate(-235.82 -377.297)"/>
        <path id="Path_1406" data-name="Path 1406" class="cls-2" d="M224.629,483.848a.3.3,0,0,0,.078-.237.282.282,0,0,0-.2-.2c-.137-.04-.18.063-.428.12-.175.04-.261.013-.548.082-.083.02-.148.039-.156.079s.045.074.2.2c.182.147.2.17.2.2-.007.09-.237.142-.311.158-.188.043-.3.02-.547.082-.1.025-.138.042-.156.079-.041.089.066.246.156.316C223.353,485.052,224.407,484.147,224.629,483.848Z" transform="translate(-218.838 -464.332)"/>
        <path id="Path_1407" data-name="Path 1407" class="cls-2" d="M239.192,500.883c.027.019.414.3.354.51-.015.049-.048.072-.039.119.02.1.18.085.313.235a.223.223,0,0,1,.078.158.236.236,0,0,1-.2.2c-.161.027-.274-.163-.352-.116-.032.019-.047.092-.078.237-.016.077-.016.1-.039.118-.05.035-.143-.025-.235-.079-.237-.135-.457-.261-.587-.194-.1.052-.1.2-.2.2a.862.862,0,0,1-.117-.04.606.606,0,0,0-.117-.039c-.09.011-.1.177-.194.2a.156.156,0,0,1-.117-.039c-.123-.088-.066-.222-.156-.316-.113-.112-.354-.066-.508-.036s-.241.079-.274.04.023-.142.078-.237a1.517,1.517,0,0,1,.232-.316c.534-.516.8-.774,1.048-.833a1.414,1.414,0,0,1,1.11.228Z" transform="translate(-232.268 -480.861)"/>
        <path id="Path_1408" data-name="Path 1408" class="cls-2" d="M165.691,462.2c0,.263-.894.34-2.024.642a.761.761,0,0,1-.391,0c-.046-.012-.278-.076-.313-.234a.3.3,0,0,1,.078-.237c.279-.334.947.2,1.6-.127.274-.137.364-.334.622-.319C165.454,461.941,165.689,462.068,165.691,462.2Z" transform="translate(-161.388 -443.702)"/>
        <path id="Path_1409" data-name="Path 1409" class="cls-2" d="M204.541,586.531a1.157,1.157,0,0,0-.629-.862,1.907,1.907,0,0,0-.978-.192c-.313,0-.29.048-.663.043a2.463,2.463,0,0,0-.665.044c-.208.048-.274.1-.311.158a.409.409,0,0,0,0,.4.444.444,0,0,0,.313.234c.282.047.55-.242.584-.2.02.025-.088.111-.078.237a.273.273,0,0,0,.078.158.677.677,0,0,0,.7.233c.086-.04.1-.088.156-.079.134.019.2.329.237.471.06.263.031.378.119.434a.23.23,0,0,0,.274-.04c.126-.158-.179-.495-.043-.671a.244.244,0,0,1,.156-.079c.13-.018.18.087.352.116a.381.381,0,0,0,.274-.039A.438.438,0,0,0,204.541,586.531Z" transform="translate(-198.178 -562.371)"/>
        <path id="Path_1410" data-name="Path 1410" class="cls-2" d="M213.742,641.24c.006-.163.249-.218.232-.316s-.278-.148-.469-.155c-.361-.012-.452.13-.665.043a.958.958,0,0,1-.313-.234c-.1-.11-.13-.2-.2-.2s-.068.079-.194.2c-.068.065-.19.182-.313.158-.061-.011-.078-.05-.117-.039-.063.018-.106.141-.078.237.014.047.039.058.2.2a1.042,1.042,0,0,1,.2.2.348.348,0,0,1,.078.158c.023.166-.156.281-.115.356.009.016.027.027.117.04a.9.9,0,0,0,.391,0,1.1,1.1,0,0,0,.311-.158.359.359,0,0,1,.156-.079.35.35,0,0,1,.235.079c.2.123.192.207.313.234a.542.542,0,0,0,.274-.04c.087-.026.131-.039.156-.079.043-.069,0-.167-.039-.277C213.812,641.342,213.739,641.33,213.742,641.24Z" transform="translate(-208.148 -615.106)"/>
        <path id="Path_1411" data-name="Path 1411" class="cls-2" d="M214.137,700.014l.2.2h0a.9.9,0,0,1-.626-.075c-.178-.143-.057-.355-.237-.471a.61.61,0,0,0-.559,0c-.046.025-.083.054-.1.039-.045-.03,0-.24.115-.355a.594.594,0,0,1,.663-.043C213.84,699.451,213.843,699.719,214.137,700.014Z" transform="translate(-209.271 -671.632)"/>
        <path id="Path_1412" data-name="Path 1412" class="cls-2" d="M179.1,762.418c.282.086.4-.026.743.114.156.064.329.171.313.235s-.148.039-.428.121c-.186.054-.3.087-.311.158-.022.1.158.153.156.314a.583.583,0,0,1-.078.237s-.2.285-.35.277-.122-.323-.354-.51c-.17-.137-.53-.142-1.249-.15-.094,0-.271,0-.352-.116-.052-.074-.021-.134-.039-.276a.776.776,0,0,0-.237-.471c-.187-.142-.361-.018-.469-.155a.414.414,0,0,1,0-.4.533.533,0,0,1,.35-.276.762.762,0,0,1,.508.036c.225.084.227.18.43.273.261.118.346,0,.626.075C178.763,762.018,178.706,762.3,179.1,762.418Z" transform="translate(-174.302 -731.436)"/>
        <path id="Path_1413" data-name="Path 1413" class="cls-2" d="M170.157,855.459c.078.062.18-.05.391,0,.107.024.293.1.313.234s-.106.256-.232.316c-.255.12-.458-.094-.662.043-.1.068-.078.139-.2.2a.51.51,0,0,1-.391,0,1.842,1.842,0,0,1-.547-.312c-.387-.258-.581-.386-.782-.389s-.306.079-.391,0a.333.333,0,0,1,0-.4c.105-.145.256-.059.584-.2.245-.106.255-.2.467-.239a1.881,1.881,0,0,1,.391,0c.268.011.292.026.508.037.4.019.447-.025.508.036C170.268,854.95,170.014,855.35,170.157,855.459Z" transform="translate(-165.841 -820.969)"/>
        <path id="Path_1414" data-name="Path 1414" class="cls-2" d="M168.743,919.8a.728.728,0,0,1-.115.356h0a2.34,2.34,0,0,1-.426.513c-.263.22-.359.1-.622.318-.211.171-.154.248-.426.514a1.76,1.76,0,0,1-.5.355.661.661,0,0,1-.546.082c-.037-.017-.181-.082-.2-.2-.036-.265.665-.476.62-.711-.01-.054-.072-.1-.2-.2-.178-.136-.285-.141-.313-.235a.288.288,0,0,1,.078-.237c.129-.158.318-.149.584-.2a2.718,2.718,0,0,0,.9-.359c.3-.2.3-.323.5-.356C168.373,919.4,168.717,919.6,168.743,919.8Z" transform="translate(-164.22 -883.143)"/>
      </g>
    </g>
  </g>
</svg>
