<svg xmlns="http://www.w3.org/2000/svg" viewBox="4623.905 44.019 142.368 37.562">
  <defs>
    <style>
      .cls-1 {
        fill: #151515;
      }

      .cls-2 {
        fill: #dd8027;
      }
    </style>
  </defs>
  <g id="logo" transform="translate(4623.905 44.019)">
    <g id="Layer_6" data-name="Layer 6" transform="translate(0 0)">
      <g id="Group_1512" data-name="Group 1512" transform="translate(35.117 9.668)">
        <path id="Path_1415" data-name="Path 1415" class="cls-1" d="M1015.769,282.14c4.615,0,6.8,2.756,6.8,6.608a13.181,13.181,0,0,1-.563,3.251h-13a5.4,5.4,0,0,0-.106,1.06c0,2.65,1.727,4.841,5.074,4.841a10.3,10.3,0,0,0,5.672-2.084l.986,2.721a12.151,12.151,0,0,1-6.8,2.332c-5.214,0-8.421-3.18-8.421-7.632C1005.41,287.3,1009.779,282.14,1015.769,282.14Zm3.312,7.279a5.926,5.926,0,0,0,.07-.953,3.247,3.247,0,0,0-3.453-3.6,6.719,6.719,0,0,0-6.132,4.558Z" transform="translate(-1005.41 -282.14)"/>
        <path id="Path_1416" data-name="Path 1416" class="cls-1" d="M1428.414,316.051c1.515,0,2.784-.953,3.77-2.58l1.3-2.12L1429.4,293.72h3.558l2.395,12.084c.176.919.282,2.12.282,2.12h.036s.528-1.166,1.022-2.049l6.694-12.155h3.84l-12.508,21.165c-1.656,2.791-3.911,4.134-6.166,4.134a6.388,6.388,0,0,1-3.664-1.166l1.585-2.438A3.163,3.163,0,0,0,1428.414,316.051Z" transform="translate(-1409.67 -293.296)"/>
        <path id="Path_1417" data-name="Path 1417" class="cls-1" d="M2044.7,282.14c4.969,0,8.455,3.18,8.455,7.809a11.208,11.208,0,0,1-10.994,10.919c-5,0-8.491-3.216-8.491-7.878A11.157,11.157,0,0,1,2044.7,282.14Zm-2.5,15.759a7.853,7.853,0,0,0,7.469-7.774,4.8,4.8,0,0,0-5-5.017,7.8,7.8,0,0,0-7.5,7.738A4.816,4.816,0,0,0,2042.2,297.9Z" transform="translate(-1996.36 -282.14)"/>
        <path id="Path_1418" data-name="Path 1418" class="cls-1" d="M2666.85,293.72h3.415l1.271,12.615a14.769,14.769,0,0,1,.07,1.908h.071s.423-1.026.845-1.908l6.271-12.58h3.171l1.375,12.58c.071.742.105,1.908.105,1.908h.071a19.694,19.694,0,0,1,.811-1.908l6.2-12.615h3.665L2685,311.6h-3.771l-1.481-11.554c-.105-.919-.105-1.908-.105-1.908h-.071s-.422.989-.881,1.908l-5.881,11.554h-3.7Z" transform="translate(-2606.566 -293.296)"/>
        <path id="Path_1419" data-name="Path 1419" class="cls-1" d="M3435.289,282.14c4.968,0,8.456,3.18,8.456,7.809a11.208,11.208,0,0,1-10.993,10.919c-5,0-8.492-3.216-8.492-7.878A11.155,11.155,0,0,1,3435.289,282.14Zm-2.5,15.759a7.854,7.854,0,0,0,7.47-7.774,4.8,4.8,0,0,0-5-5.017,7.8,7.8,0,0,0-7.5,7.738A4.816,4.816,0,0,0,3432.787,297.9Z" transform="translate(-3336.494 -282.14)"/>
      </g>
      <g id="Group_1816" data-name="Group 1816">
        <path id="Path_1400" data-name="Path 1400" class="cls-2" d="M297.856,2.312s1.032-4.814,4.9.828c0,0,6.227,6.847,4.39,15.453a23.841,23.841,0,0,1-1.85,5.34,24.172,24.172,0,0,1-5.652,7.445l-5.037,4.606s-5.34,3.521-4.207-.931c0,0,.055-1.844.947-2.212a1.66,1.66,0,0,0,.581-2.44s-.535-1.051.981-1.981a1.463,1.463,0,0,0,.484-2.143,1.993,1.993,0,0,1,1.146-2.146s1.157-.171.484-2.143c0,0-.139-1.25.819-1.486,0,0,1.389-.205.155-1.812,0,0-.734-1.115.75-1.948,0,0,.958-.236-.111-2.008,0,0-.633-.754.752-1.618,0,0,.759-.3-.044-1.877,0,0-.7-1.544.452-2.044,0,0,.857-.6.22-2.01C298.017,7.185,297.2,3.633,297.856,2.312Z" transform="translate(-280.614 -0.399)"/>
        <path id="Path_1401" data-name="Path 1401" class="cls-2" d="M14.83,19.2s1.044-2.509-1.136-1.9-6.362,3.955-6.362,3.955S.8,24.712,0,35.189c0,0,.127,10.669,3.263,15.2L6,54.122s1.228.619,1.58-1.458l.938-3.858a1.622,1.622,0,0,1,.987-.994s.859-.268-.077-1.778c0,0-.269-.855.886-1.354a1.083,1.083,0,0,0,.424-.25,1.991,1.991,0,0,0,.058-2.223,9.315,9.315,0,0,1-.032-1.915,9.753,9.753,0,0,1,1.583-4.483S16.8,28.277,14.96,24.5A7.628,7.628,0,0,1,14.83,19.2Z" transform="translate(0 -16.647)"/>
      </g>
    </g>
  </g>
</svg>
